<svg xmlns="http://www.w3.org/2000/svg" xmlns:xlink="http://www.w3.org/1999/xlink" width="172.318" height="20" viewBox="0 0 172.318 20">
  <defs>
    <clipPath id="clip-path">
      <rect id="사각형_1" data-name="사각형 1" width="172.318" height="20" fill="#2772ff"/>
    </clipPath>
  </defs>
  <g id="그룹_4" data-name="그룹 4" transform="translate(0 0)">
    <path id="패스_1" data-name="패스 1" d="M776.627.492V20.474H794.9v-4h-14.28V12.53H794.9V8.436h-14.28v-3.8H794.9V.492Z" transform="translate(-748.512 -0.474)" fill="#2772ff"/>
    <path id="패스_2" data-name="패스 2" d="M1374.38,0V20h4.094V11.959h7.165L1389.293,20h4.435l-4.435-10.04L1394.07.018h-4.289l-3.948,7.847h-7.359V0Z" transform="translate(-1324.626 0)" fill="#2772ff"/>
    <path id="패스_3" data-name="패스 3" d="M20.561.492V16.283H14.4V.59H10.257V16.283H4.095V.492H0V20.474H24.7V.492Z" transform="translate(0 -0.474)" fill="#2772ff"/>
    <path id="패스_4" data-name="패스 4" d="M1988.287.492V20.474h18.276v-4h-14.28V12.53h14.28V8.436h-14.28v-3.8h14.28V.492Z" transform="translate(-1916.309 -0.474)" fill="#2772ff"/>
    <path id="패스_5" data-name="패스 5" d="M3179.8,4.635h10.43v3.8H3179.8ZM3175.707.492V20.474h4.094V12.53h14.523V.492Z" transform="translate(-3060.742 -0.474)" fill="#2772ff"/>
    <path id="패스_6" data-name="패스 6" d="M2576.608.492V20.474h18.277v-4h-14.28V12.53h14.28V8.436h-14.28v-3.8h14.28V.492Z" transform="translate(-2483.332 -0.474)" fill="#2772ff"/>
    <g id="그룹_2" data-name="그룹 2" transform="translate(0 0)">
      <g id="그룹_1" data-name="그룹 1" clip-path="url(#clip-path)">
        <path id="패스_7" data-name="패스 7" d="M3725.5,14.463c-.078,2.09-.654,2.231-.654,2.231-1.6-.307-1.66-4.951-1.661-4.958l-.149-2.21s-.047-3.2-1.988-3.2l-3.484.14a4.105,4.105,0,0,0-2.853,1.543s-.236-4.985-2.037-6.88A2.138,2.138,0,0,0,3710.952.5l-3.776.29a2.815,2.815,0,0,0-.3.047V.83s-.038.006-.106.023a2.869,2.869,0,0,0-1.21.6c-1.242.858-3.174,2.883-4.941,7.641l0,.008c-.146.343-.293.686-.431,1.032q-.748,1.929-1.454,3.87-.081.221-.158.442c-.112.312-.226.623-.347.932a14.217,14.217,0,0,1-.848,1.843,3.164,3.164,0,0,1-1,1.3.334.334,0,0,1-.492-.14,11.188,11.188,0,0,1-.984-2.468h-4.926a11.592,11.592,0,0,0,.745.963,14.259,14.259,0,0,0,1.965,1.941,7.173,7.173,0,0,0,3.42,1.621,4.114,4.114,0,0,0,3.24-1.059,12.478,12.478,0,0,0,2.372-3.058,29.63,29.63,0,0,0,1.446-2.9c.437-.983.867-1.965,1.318-2.942,2.694-5.959,3.884-5.938,3.884-5.938s1.105,2.964.525,15.929h5.674s.02-.075.021-.075,2.2-8.793,4.209-10.757q.128,1.763.255,3.526c.135,1.879.473,4.108,2.455,4.908a4.4,4.4,0,0,0,2.7.1,7.286,7.286,0,0,0,3-1.335,4.394,4.394,0,0,0,1.285-1.97c.022-.067.216-1.041.228-1.043Z" transform="translate(-3556.398 -0.474)" fill="#2772ff"/>
      </g>
    </g>
  </g>
</svg>
